<mxfile host="app.diagrams.net" modified="2023-11-29T03:41:11.195Z" agent="Mozilla/5.0 (Windows NT 10.0; Win64; x64) AppleWebKit/537.36 (KHTML, like Gecko) Chrome/119.0.0.0 Safari/537.36 Edg/119.0.0.0" etag="SldHPfkywhDOE64Dusc5" version="22.1.4" type="device">
  <diagram name="第 1 页" id="9u1iKqR9nZQyWO_J5R4n">
    <mxGraphModel dx="3307" dy="1515" grid="1" gridSize="10" guides="1" tooltips="1" connect="1" arrows="1" fold="1" page="1" pageScale="1" pageWidth="827" pageHeight="1169" math="0" shadow="0">
      <root>
        <mxCell id="0" />
        <mxCell id="1" parent="0" />
        <mxCell id="g-RjNhoLe9gJ-0Raeltb-1" value="學生" style="shape=umlActor;verticalLabelPosition=bottom;verticalAlign=top;html=1;" parent="1" vertex="1">
          <mxGeometry x="10" y="30" width="30" height="60" as="geometry" />
        </mxCell>
        <mxCell id="g-RjNhoLe9gJ-0Raeltb-5" value="" style="html=1;points=[[0,0,0,0,5],[0,1,0,0,-5],[1,0,0,0,5],[1,1,0,0,-5]];perimeter=orthogonalPerimeter;outlineConnect=0;targetShapes=umlLifeline;portConstraint=eastwest;newEdgeStyle={&quot;curved&quot;:0,&quot;rounded&quot;:0};" parent="1" vertex="1">
          <mxGeometry x="100" y="120" width="10" height="390" as="geometry" />
        </mxCell>
        <mxCell id="g-RjNhoLe9gJ-0Raeltb-7" value="個人介面" style="shape=umlLifeline;perimeter=lifelinePerimeter;whiteSpace=wrap;html=1;container=1;dropTarget=0;collapsible=0;recursiveResize=0;outlineConnect=0;portConstraint=eastwest;newEdgeStyle={&quot;curved&quot;:0,&quot;rounded&quot;:0};" parent="1" vertex="1">
          <mxGeometry x="170" y="30" width="100" height="100" as="geometry" />
        </mxCell>
        <mxCell id="g-RjNhoLe9gJ-0Raeltb-9" value="" style="html=1;points=[[0,0,0,0,5],[0,1,0,0,-5],[1,0,0,0,5],[1,1,0,0,-5]];perimeter=orthogonalPerimeter;outlineConnect=0;targetShapes=umlLifeline;portConstraint=eastwest;newEdgeStyle={&quot;curved&quot;:0,&quot;rounded&quot;:0};" parent="1" vertex="1">
          <mxGeometry x="215" y="130" width="10" height="360" as="geometry" />
        </mxCell>
        <mxCell id="g-RjNhoLe9gJ-0Raeltb-10" value="加選介面" style="shape=umlLifeline;perimeter=lifelinePerimeter;whiteSpace=wrap;html=1;container=1;dropTarget=0;collapsible=0;recursiveResize=0;outlineConnect=0;portConstraint=eastwest;newEdgeStyle={&quot;curved&quot;:0,&quot;rounded&quot;:0};" parent="1" vertex="1">
          <mxGeometry x="290" y="30" width="100" height="110" as="geometry" />
        </mxCell>
        <mxCell id="g-RjNhoLe9gJ-0Raeltb-12" value="點擊去加選" style="html=1;verticalAlign=bottom;endArrow=block;curved=0;rounded=0;" parent="1" edge="1">
          <mxGeometry width="80" relative="1" as="geometry">
            <mxPoint x="225" y="174.1" as="sourcePoint" />
            <mxPoint x="335" y="174.10000000000002" as="targetPoint" />
            <mxPoint as="offset" />
          </mxGeometry>
        </mxCell>
        <mxCell id="g-RjNhoLe9gJ-0Raeltb-13" value="" style="html=1;points=[[0,0,0,0,5],[0,1,0,0,-5],[1,0,0,0,5],[1,1,0,0,-5]];perimeter=orthogonalPerimeter;outlineConnect=0;targetShapes=umlLifeline;portConstraint=eastwest;newEdgeStyle={&quot;curved&quot;:0,&quot;rounded&quot;:0};" parent="1" vertex="1">
          <mxGeometry x="335" y="140" width="10" height="320" as="geometry" />
        </mxCell>
        <mxCell id="g-RjNhoLe9gJ-0Raeltb-19" value="登入" style="html=1;verticalAlign=bottom;endArrow=block;curved=0;rounded=0;" parent="1" edge="1">
          <mxGeometry x="0.0095" width="80" relative="1" as="geometry">
            <mxPoint x="110" y="144" as="sourcePoint" />
            <mxPoint x="215" y="144" as="targetPoint" />
            <mxPoint as="offset" />
          </mxGeometry>
        </mxCell>
        <mxCell id="g-RjNhoLe9gJ-0Raeltb-34" value="結果回傳" style="html=1;verticalAlign=bottom;endArrow=block;curved=0;rounded=0;dashed=1;" parent="1" edge="1">
          <mxGeometry width="80" relative="1" as="geometry">
            <mxPoint x="335" y="374.5" as="sourcePoint" />
            <mxPoint x="225" y="374" as="targetPoint" />
            <mxPoint as="offset" />
          </mxGeometry>
        </mxCell>
        <mxCell id="g-RjNhoLe9gJ-0Raeltb-35" value="更新願望清單" style="html=1;verticalAlign=bottom;endArrow=block;curved=0;rounded=0;dashed=1;" parent="1" edge="1">
          <mxGeometry width="80" relative="1" as="geometry">
            <mxPoint x="214" y="402" as="sourcePoint" />
            <mxPoint x="110" y="402" as="targetPoint" />
            <mxPoint as="offset" />
          </mxGeometry>
        </mxCell>
        <mxCell id="g-RjNhoLe9gJ-0Raeltb-36" value="ALT" style="shape=umlFrame;whiteSpace=wrap;html=1;pointerEvents=0;" parent="1" vertex="1">
          <mxGeometry x="-20" y="360" width="580" height="100" as="geometry" />
        </mxCell>
        <mxCell id="g-RjNhoLe9gJ-0Raeltb-37" value="[權限:成功]" style="text;strokeColor=none;fillColor=none;align=left;verticalAlign=top;spacingLeft=4;spacingRight=4;overflow=hidden;rotatable=0;points=[[0,0.5],[1,0.5]];portConstraint=eastwest;whiteSpace=wrap;html=1;" parent="1" vertex="1">
          <mxGeometry x="23" y="380" width="100" height="26" as="geometry" />
        </mxCell>
        <mxCell id="g-RjNhoLe9gJ-0Raeltb-38" value="[權限:失敗]" style="text;strokeColor=none;fillColor=none;align=left;verticalAlign=top;spacingLeft=4;spacingRight=4;overflow=hidden;rotatable=0;points=[[0,0.5],[1,0.5]];portConstraint=eastwest;whiteSpace=wrap;html=1;" parent="1" vertex="1">
          <mxGeometry x="23" y="418" width="120" height="40" as="geometry" />
        </mxCell>
        <mxCell id="g-RjNhoLe9gJ-0Raeltb-41" value="使用者權限資料庫" style="shape=umlLifeline;perimeter=lifelinePerimeter;whiteSpace=wrap;html=1;container=1;dropTarget=0;collapsible=0;recursiveResize=0;outlineConnect=0;portConstraint=eastwest;newEdgeStyle={&quot;curved&quot;:0,&quot;rounded&quot;:0};size=40;" parent="1" vertex="1">
          <mxGeometry x="412" y="30" width="104" height="150" as="geometry" />
        </mxCell>
        <mxCell id="g-RjNhoLe9gJ-0Raeltb-43" value="" style="shape=umlLifeline;perimeter=lifelinePerimeter;whiteSpace=wrap;html=1;container=1;dropTarget=0;collapsible=0;recursiveResize=0;outlineConnect=0;portConstraint=eastwest;newEdgeStyle={&quot;curved&quot;:0,&quot;rounded&quot;:0};participant=umlControl;size=0;" parent="1" vertex="1">
          <mxGeometry x="320" y="460" width="40" height="80" as="geometry" />
        </mxCell>
        <mxCell id="g-RjNhoLe9gJ-0Raeltb-44" value="" style="shape=umlLifeline;perimeter=lifelinePerimeter;whiteSpace=wrap;html=1;container=1;dropTarget=0;collapsible=0;recursiveResize=0;outlineConnect=0;portConstraint=eastwest;newEdgeStyle={&quot;curved&quot;:0,&quot;rounded&quot;:0};participant=umlControl;size=0;" parent="1" vertex="1">
          <mxGeometry x="200" y="490" width="40" height="50" as="geometry" />
        </mxCell>
        <mxCell id="g-RjNhoLe9gJ-0Raeltb-45" value="" style="shape=umlLifeline;perimeter=lifelinePerimeter;whiteSpace=wrap;html=1;container=1;dropTarget=0;collapsible=0;recursiveResize=0;outlineConnect=0;portConstraint=eastwest;newEdgeStyle={&quot;curved&quot;:0,&quot;rounded&quot;:0};participant=umlControl;size=0;" parent="1" vertex="1">
          <mxGeometry x="83" y="510" width="40" height="30" as="geometry" />
        </mxCell>
        <mxCell id="g-RjNhoLe9gJ-0Raeltb-46" value="" style="html=1;points=[[0,0,0,0,5],[0,1,0,0,-5],[1,0,0,0,5],[1,1,0,0,-5]];perimeter=orthogonalPerimeter;outlineConnect=0;targetShapes=umlLifeline;portConstraint=eastwest;newEdgeStyle={&quot;curved&quot;:0,&quot;rounded&quot;:0};" parent="1" vertex="1">
          <mxGeometry x="459" y="180" width="10" height="250" as="geometry" />
        </mxCell>
        <mxCell id="g-RjNhoLe9gJ-0Raeltb-48" value="個人資料" style="html=1;verticalAlign=bottom;endArrow=block;curved=0;rounded=0;" parent="1" edge="1">
          <mxGeometry width="80" relative="1" as="geometry">
            <mxPoint x="345" y="335" as="sourcePoint" />
            <mxPoint x="455" y="335" as="targetPoint" />
          </mxGeometry>
        </mxCell>
        <mxCell id="g-RjNhoLe9gJ-0Raeltb-49" value="權限" style="html=1;verticalAlign=bottom;endArrow=block;curved=0;rounded=0;dashed=1;" parent="1" edge="1">
          <mxGeometry width="80" relative="1" as="geometry">
            <mxPoint x="455" y="354.5" as="sourcePoint" />
            <mxPoint x="345" y="354" as="targetPoint" />
            <mxPoint as="offset" />
          </mxGeometry>
        </mxCell>
        <mxCell id="g-RjNhoLe9gJ-0Raeltb-50" value="權限不足，禁止" style="html=1;verticalAlign=bottom;endArrow=block;curved=0;rounded=0;dashed=1;" parent="1" edge="1">
          <mxGeometry width="80" relative="1" as="geometry">
            <mxPoint x="329" y="444" as="sourcePoint" />
            <mxPoint x="225" y="444" as="targetPoint" />
            <mxPoint as="offset" />
          </mxGeometry>
        </mxCell>
        <mxCell id="g-RjNhoLe9gJ-0Raeltb-51" value="刷新介面" style="html=1;verticalAlign=bottom;endArrow=block;curved=0;rounded=0;dashed=1;" parent="1" edge="1">
          <mxGeometry x="0.0577" width="80" relative="1" as="geometry">
            <mxPoint x="215" y="480" as="sourcePoint" />
            <mxPoint x="111" y="480" as="targetPoint" />
            <mxPoint as="offset" />
          </mxGeometry>
        </mxCell>
        <mxCell id="g-RjNhoLe9gJ-0Raeltb-53" value="" style="line;strokeWidth=1;fillColor=none;align=left;verticalAlign=middle;spacingTop=-1;spacingLeft=3;spacingRight=3;rotatable=0;labelPosition=right;points=[];portConstraint=eastwest;strokeColor=inherit;dashed=1;" parent="1" vertex="1">
          <mxGeometry x="-20" y="410" width="580" height="8" as="geometry" />
        </mxCell>
        <mxCell id="g-RjNhoLe9gJ-0Raeltb-54" value="登入首頁" style="shape=umlLifeline;perimeter=lifelinePerimeter;whiteSpace=wrap;html=1;container=1;dropTarget=0;collapsible=0;recursiveResize=0;outlineConnect=0;portConstraint=eastwest;newEdgeStyle={&quot;curved&quot;:0,&quot;rounded&quot;:0};" parent="1" vertex="1">
          <mxGeometry x="55" y="30" width="100" height="90" as="geometry" />
        </mxCell>
        <mxCell id="g-RjNhoLe9gJ-0Raeltb-55" value="" style="html=1;points=[[0,0,0,0,5],[0,1,0,0,-5],[1,0,0,0,5],[1,1,0,0,-5]];perimeter=orthogonalPerimeter;outlineConnect=0;targetShapes=umlLifeline;portConstraint=eastwest;newEdgeStyle={&quot;curved&quot;:0,&quot;rounded&quot;:0};" parent="1" vertex="1">
          <mxGeometry x="20" y="120" width="10" height="350" as="geometry" />
        </mxCell>
        <mxCell id="g-RjNhoLe9gJ-0Raeltb-59" value="進入" style="html=1;verticalAlign=bottom;endArrow=block;curved=0;rounded=0;" parent="1" target="g-RjNhoLe9gJ-0Raeltb-5" edge="1">
          <mxGeometry width="80" relative="1" as="geometry">
            <mxPoint x="30" y="130" as="sourcePoint" />
            <mxPoint x="90" y="130" as="targetPoint" />
          </mxGeometry>
        </mxCell>
        <mxCell id="g-RjNhoLe9gJ-0Raeltb-60" value="" style="shape=umlLifeline;perimeter=lifelinePerimeter;whiteSpace=wrap;html=1;container=1;dropTarget=0;collapsible=0;recursiveResize=0;outlineConnect=0;portConstraint=eastwest;newEdgeStyle={&quot;curved&quot;:0,&quot;rounded&quot;:0};participant=umlControl;size=0;" parent="1" vertex="1">
          <mxGeometry x="5" y="470" width="40" height="70" as="geometry" />
        </mxCell>
        <mxCell id="g-RjNhoLe9gJ-0Raeltb-62" value="" style="shape=umlLifeline;perimeter=lifelinePerimeter;whiteSpace=wrap;html=1;container=1;dropTarget=0;collapsible=0;recursiveResize=0;outlineConnect=0;portConstraint=eastwest;newEdgeStyle={&quot;curved&quot;:0,&quot;rounded&quot;:0};participant=umlControl;size=0;" parent="1" vertex="1">
          <mxGeometry x="444" y="430" width="40" height="110" as="geometry" />
        </mxCell>
        <mxCell id="g-RjNhoLe9gJ-0Raeltb-64" value="從願望清單加選" style="html=1;whiteSpace=wrap;" parent="1" vertex="1">
          <mxGeometry x="-120" y="20" width="110" height="50" as="geometry" />
        </mxCell>
        <mxCell id="g-RjNhoLe9gJ-0Raeltb-99" value="學生" style="shape=umlActor;verticalLabelPosition=bottom;verticalAlign=top;html=1;" parent="1" vertex="1">
          <mxGeometry x="-670" y="164" width="30" height="60" as="geometry" />
        </mxCell>
        <mxCell id="g-RjNhoLe9gJ-0Raeltb-100" value="" style="html=1;points=[[0,0,0,0,5],[0,1,0,0,-5],[1,0,0,0,5],[1,1,0,0,-5]];perimeter=orthogonalPerimeter;outlineConnect=0;targetShapes=umlLifeline;portConstraint=eastwest;newEdgeStyle={&quot;curved&quot;:0,&quot;rounded&quot;:0};" parent="1" vertex="1">
          <mxGeometry x="-580" y="254" width="10" height="306" as="geometry" />
        </mxCell>
        <mxCell id="g-RjNhoLe9gJ-0Raeltb-101" value="新增使用者介面" style="shape=umlLifeline;perimeter=lifelinePerimeter;whiteSpace=wrap;html=1;container=1;dropTarget=0;collapsible=0;recursiveResize=0;outlineConnect=0;portConstraint=eastwest;newEdgeStyle={&quot;curved&quot;:0,&quot;rounded&quot;:0};" parent="1" vertex="1">
          <mxGeometry x="-510" y="164" width="100" height="100" as="geometry" />
        </mxCell>
        <mxCell id="g-RjNhoLe9gJ-0Raeltb-102" value="" style="html=1;points=[[0,0,0,0,5],[0,1,0,0,-5],[1,0,0,0,5],[1,1,0,0,-5]];perimeter=orthogonalPerimeter;outlineConnect=0;targetShapes=umlLifeline;portConstraint=eastwest;newEdgeStyle={&quot;curved&quot;:0,&quot;rounded&quot;:0};" parent="1" vertex="1">
          <mxGeometry x="-465" y="264" width="10" height="296" as="geometry" />
        </mxCell>
        <mxCell id="g-RjNhoLe9gJ-0Raeltb-103" value="返回介面" style="shape=umlLifeline;perimeter=lifelinePerimeter;whiteSpace=wrap;html=1;container=1;dropTarget=0;collapsible=0;recursiveResize=0;outlineConnect=0;portConstraint=eastwest;newEdgeStyle={&quot;curved&quot;:0,&quot;rounded&quot;:0};" parent="1" vertex="1">
          <mxGeometry x="-390" y="164" width="100" height="110" as="geometry" />
        </mxCell>
        <mxCell id="g-RjNhoLe9gJ-0Raeltb-104" value="輸入資料" style="html=1;verticalAlign=bottom;endArrow=block;curved=0;rounded=0;" parent="1" edge="1">
          <mxGeometry width="80" relative="1" as="geometry">
            <mxPoint x="-455" y="308.1" as="sourcePoint" />
            <mxPoint x="-345" y="308.1" as="targetPoint" />
          </mxGeometry>
        </mxCell>
        <mxCell id="g-RjNhoLe9gJ-0Raeltb-105" value="" style="html=1;points=[[0,0,0,0,5],[0,1,0,0,-5],[1,0,0,0,5],[1,1,0,0,-5]];perimeter=orthogonalPerimeter;outlineConnect=0;targetShapes=umlLifeline;portConstraint=eastwest;newEdgeStyle={&quot;curved&quot;:0,&quot;rounded&quot;:0};" parent="1" vertex="1">
          <mxGeometry x="-345" y="274" width="10" height="276" as="geometry" />
        </mxCell>
        <mxCell id="g-RjNhoLe9gJ-0Raeltb-107" value="點選新增使用者" style="html=1;verticalAlign=bottom;endArrow=block;curved=0;rounded=0;" parent="1" edge="1">
          <mxGeometry x="0.0095" width="80" relative="1" as="geometry">
            <mxPoint x="-570" y="278" as="sourcePoint" />
            <mxPoint x="-465" y="278" as="targetPoint" />
            <mxPoint as="offset" />
          </mxGeometry>
        </mxCell>
        <mxCell id="g-RjNhoLe9gJ-0Raeltb-111" value="更新願望清單" style="html=1;verticalAlign=bottom;endArrow=block;curved=0;rounded=0;dashed=1;" parent="1" edge="1">
          <mxGeometry width="80" relative="1" as="geometry">
            <mxPoint x="-345" y="396.5" as="sourcePoint" />
            <mxPoint x="-455" y="396" as="targetPoint" />
            <mxPoint as="offset" />
          </mxGeometry>
        </mxCell>
        <mxCell id="g-RjNhoLe9gJ-0Raeltb-113" value="ALT" style="shape=umlFrame;whiteSpace=wrap;html=1;pointerEvents=0;" parent="1" vertex="1">
          <mxGeometry x="-700" y="382" width="580" height="106" as="geometry" />
        </mxCell>
        <mxCell id="g-RjNhoLe9gJ-0Raeltb-114" value="[權限:成功]" style="text;strokeColor=none;fillColor=none;align=left;verticalAlign=top;spacingLeft=4;spacingRight=4;overflow=hidden;rotatable=0;points=[[0,0.5],[1,0.5]];portConstraint=eastwest;whiteSpace=wrap;html=1;" parent="1" vertex="1">
          <mxGeometry x="-657" y="402" width="100" height="26" as="geometry" />
        </mxCell>
        <mxCell id="g-RjNhoLe9gJ-0Raeltb-115" value="[權限:失敗]" style="text;strokeColor=none;fillColor=none;align=left;verticalAlign=top;spacingLeft=4;spacingRight=4;overflow=hidden;rotatable=0;points=[[0,0.5],[1,0.5]];portConstraint=eastwest;whiteSpace=wrap;html=1;" parent="1" vertex="1">
          <mxGeometry x="-657" y="440" width="120" height="40" as="geometry" />
        </mxCell>
        <mxCell id="g-RjNhoLe9gJ-0Raeltb-116" value="使用者權限資料庫" style="shape=umlLifeline;perimeter=lifelinePerimeter;whiteSpace=wrap;html=1;container=1;dropTarget=0;collapsible=0;recursiveResize=0;outlineConnect=0;portConstraint=eastwest;newEdgeStyle={&quot;curved&quot;:0,&quot;rounded&quot;:0};size=40;" parent="1" vertex="1">
          <mxGeometry x="-268" y="164" width="104" height="150" as="geometry" />
        </mxCell>
        <mxCell id="g-RjNhoLe9gJ-0Raeltb-120" value="" style="html=1;points=[[0,0,0,0,5],[0,1,0,0,-5],[1,0,0,0,5],[1,1,0,0,-5]];perimeter=orthogonalPerimeter;outlineConnect=0;targetShapes=umlLifeline;portConstraint=eastwest;newEdgeStyle={&quot;curved&quot;:0,&quot;rounded&quot;:0};" parent="1" vertex="1">
          <mxGeometry x="-221" y="314" width="10" height="250" as="geometry" />
        </mxCell>
        <mxCell id="g-RjNhoLe9gJ-0Raeltb-121" value="個人資料" style="html=1;verticalAlign=bottom;endArrow=block;curved=0;rounded=0;" parent="1" edge="1">
          <mxGeometry width="80" relative="1" as="geometry">
            <mxPoint x="-335" y="357" as="sourcePoint" />
            <mxPoint x="-225" y="357" as="targetPoint" />
          </mxGeometry>
        </mxCell>
        <mxCell id="g-RjNhoLe9gJ-0Raeltb-122" value="權限" style="html=1;verticalAlign=bottom;endArrow=block;curved=0;rounded=0;dashed=1;" parent="1" edge="1">
          <mxGeometry width="80" relative="1" as="geometry">
            <mxPoint x="-225" y="376.5" as="sourcePoint" />
            <mxPoint x="-335" y="376" as="targetPoint" />
            <mxPoint as="offset" />
          </mxGeometry>
        </mxCell>
        <mxCell id="g-RjNhoLe9gJ-0Raeltb-123" value="權限不足，禁止" style="html=1;verticalAlign=bottom;endArrow=block;curved=0;rounded=0;dashed=1;" parent="1" edge="1">
          <mxGeometry width="80" relative="1" as="geometry">
            <mxPoint x="-351" y="466" as="sourcePoint" />
            <mxPoint x="-455" y="466" as="targetPoint" />
            <mxPoint as="offset" />
          </mxGeometry>
        </mxCell>
        <mxCell id="g-RjNhoLe9gJ-0Raeltb-124" value="刷新介面" style="html=1;verticalAlign=bottom;endArrow=block;curved=0;rounded=0;dashed=1;" parent="1" edge="1">
          <mxGeometry x="0.0577" width="80" relative="1" as="geometry">
            <mxPoint x="-466" y="506.58000000000004" as="sourcePoint" />
            <mxPoint x="-570" y="506.58000000000004" as="targetPoint" />
            <mxPoint as="offset" />
          </mxGeometry>
        </mxCell>
        <mxCell id="g-RjNhoLe9gJ-0Raeltb-126" value="" style="line;strokeWidth=1;fillColor=none;align=left;verticalAlign=middle;spacingTop=-1;spacingLeft=3;spacingRight=3;rotatable=0;labelPosition=right;points=[];portConstraint=eastwest;strokeColor=inherit;dashed=1;" parent="1" vertex="1">
          <mxGeometry x="-700" y="432" width="580" height="8" as="geometry" />
        </mxCell>
        <mxCell id="g-RjNhoLe9gJ-0Raeltb-127" value="登入首頁" style="shape=umlLifeline;perimeter=lifelinePerimeter;whiteSpace=wrap;html=1;container=1;dropTarget=0;collapsible=0;recursiveResize=0;outlineConnect=0;portConstraint=eastwest;newEdgeStyle={&quot;curved&quot;:0,&quot;rounded&quot;:0};" parent="1" vertex="1">
          <mxGeometry x="-625" y="164" width="100" height="90" as="geometry" />
        </mxCell>
        <mxCell id="g-RjNhoLe9gJ-0Raeltb-128" value="" style="html=1;points=[[0,0,0,0,5],[0,1,0,0,-5],[1,0,0,0,5],[1,1,0,0,-5]];perimeter=orthogonalPerimeter;outlineConnect=0;targetShapes=umlLifeline;portConstraint=eastwest;newEdgeStyle={&quot;curved&quot;:0,&quot;rounded&quot;:0};" parent="1" vertex="1">
          <mxGeometry x="-660" y="254" width="10" height="296" as="geometry" />
        </mxCell>
        <mxCell id="g-RjNhoLe9gJ-0Raeltb-129" value="進入" style="html=1;verticalAlign=bottom;endArrow=block;curved=0;rounded=0;" parent="1" target="g-RjNhoLe9gJ-0Raeltb-100" edge="1">
          <mxGeometry width="80" relative="1" as="geometry">
            <mxPoint x="-650" y="264" as="sourcePoint" />
            <mxPoint x="-590" y="264" as="targetPoint" />
          </mxGeometry>
        </mxCell>
        <mxCell id="g-RjNhoLe9gJ-0Raeltb-132" value="新增使用者" style="html=1;whiteSpace=wrap;" parent="1" vertex="1">
          <mxGeometry x="-800" y="140" width="110" height="50" as="geometry" />
        </mxCell>
        <mxCell id="g-RjNhoLe9gJ-0Raeltb-133" value="回傳新願望清單" style="html=1;verticalAlign=bottom;endArrow=block;curved=0;rounded=0;dashed=1;" parent="1" edge="1">
          <mxGeometry x="0.0577" width="80" relative="1" as="geometry">
            <mxPoint x="-466" y="418" as="sourcePoint" />
            <mxPoint x="-570" y="418" as="targetPoint" />
            <mxPoint as="offset" />
          </mxGeometry>
        </mxCell>
        <mxCell id="g-RjNhoLe9gJ-0Raeltb-136" value="學生&lt;br&gt;" style="shape=umlActor;verticalLabelPosition=bottom;verticalAlign=top;html=1;" parent="1" vertex="1">
          <mxGeometry x="-660" y="744" width="30" height="56" as="geometry" />
        </mxCell>
        <mxCell id="g-RjNhoLe9gJ-0Raeltb-137" value="" style="html=1;points=[[0,0,0,0,5],[0,1,0,0,-5],[1,0,0,0,5],[1,1,0,0,-5]];perimeter=orthogonalPerimeter;outlineConnect=0;targetShapes=umlLifeline;portConstraint=eastwest;newEdgeStyle={&quot;curved&quot;:0,&quot;rounded&quot;:0};" parent="1" vertex="1">
          <mxGeometry x="-570" y="834" width="10" height="306" as="geometry" />
        </mxCell>
        <mxCell id="g-RjNhoLe9gJ-0Raeltb-138" value="個人介面" style="shape=umlLifeline;perimeter=lifelinePerimeter;whiteSpace=wrap;html=1;container=1;dropTarget=0;collapsible=0;recursiveResize=0;outlineConnect=0;portConstraint=eastwest;newEdgeStyle={&quot;curved&quot;:0,&quot;rounded&quot;:0};" parent="1" vertex="1">
          <mxGeometry x="-500" y="744" width="100" height="100" as="geometry" />
        </mxCell>
        <mxCell id="g-RjNhoLe9gJ-0Raeltb-139" value="" style="html=1;points=[[0,0,0,0,5],[0,1,0,0,-5],[1,0,0,0,5],[1,1,0,0,-5]];perimeter=orthogonalPerimeter;outlineConnect=0;targetShapes=umlLifeline;portConstraint=eastwest;newEdgeStyle={&quot;curved&quot;:0,&quot;rounded&quot;:0};" parent="1" vertex="1">
          <mxGeometry x="-455" y="844" width="10" height="296" as="geometry" />
        </mxCell>
        <mxCell id="g-RjNhoLe9gJ-0Raeltb-140" value="課程資料" style="shape=umlLifeline;perimeter=lifelinePerimeter;whiteSpace=wrap;html=1;container=1;dropTarget=0;collapsible=0;recursiveResize=0;outlineConnect=0;portConstraint=eastwest;newEdgeStyle={&quot;curved&quot;:0,&quot;rounded&quot;:0};" parent="1" vertex="1">
          <mxGeometry x="-380" y="744" width="100" height="110" as="geometry" />
        </mxCell>
        <mxCell id="g-RjNhoLe9gJ-0Raeltb-141" value="點擊&lt;br&gt;退選" style="html=1;verticalAlign=bottom;endArrow=block;curved=0;rounded=0;" parent="1" edge="1">
          <mxGeometry width="80" relative="1" as="geometry">
            <mxPoint x="-445" y="888.1" as="sourcePoint" />
            <mxPoint x="-335" y="888.1" as="targetPoint" />
            <mxPoint as="offset" />
          </mxGeometry>
        </mxCell>
        <mxCell id="g-RjNhoLe9gJ-0Raeltb-142" value="" style="html=1;points=[[0,0,0,0,5],[0,1,0,0,-5],[1,0,0,0,5],[1,1,0,0,-5]];perimeter=orthogonalPerimeter;outlineConnect=0;targetShapes=umlLifeline;portConstraint=eastwest;newEdgeStyle={&quot;curved&quot;:0,&quot;rounded&quot;:0};" parent="1" vertex="1">
          <mxGeometry x="-335" y="854" width="10" height="276" as="geometry" />
        </mxCell>
        <mxCell id="g-RjNhoLe9gJ-0Raeltb-143" value="登入" style="html=1;verticalAlign=bottom;endArrow=block;curved=0;rounded=0;" parent="1" edge="1">
          <mxGeometry x="0.0095" width="80" relative="1" as="geometry">
            <mxPoint x="-560" y="858" as="sourcePoint" />
            <mxPoint x="-455" y="858" as="targetPoint" />
            <mxPoint as="offset" />
          </mxGeometry>
        </mxCell>
        <mxCell id="g-RjNhoLe9gJ-0Raeltb-144" value="" style="html=1;verticalAlign=bottom;endArrow=block;curved=0;rounded=0;dashed=1;" parent="1" edge="1">
          <mxGeometry width="80" relative="1" as="geometry">
            <mxPoint x="-335" y="979.5" as="sourcePoint" />
            <mxPoint x="-445" y="979" as="targetPoint" />
            <mxPoint as="offset" />
          </mxGeometry>
        </mxCell>
        <mxCell id="g-RjNhoLe9gJ-0Raeltb-163" value="回傳新的課程資料" style="edgeLabel;html=1;align=center;verticalAlign=middle;resizable=0;points=[];" parent="g-RjNhoLe9gJ-0Raeltb-144" vertex="1" connectable="0">
          <mxGeometry x="-0.0792" relative="1" as="geometry">
            <mxPoint x="-4" y="-9" as="offset" />
          </mxGeometry>
        </mxCell>
        <mxCell id="g-RjNhoLe9gJ-0Raeltb-145" value="ALT" style="shape=umlFrame;whiteSpace=wrap;html=1;pointerEvents=0;" parent="1" vertex="1">
          <mxGeometry x="-690" y="962" width="580" height="138" as="geometry" />
        </mxCell>
        <mxCell id="g-RjNhoLe9gJ-0Raeltb-146" value="[權限:成功]" style="text;strokeColor=none;fillColor=none;align=left;verticalAlign=top;spacingLeft=4;spacingRight=4;overflow=hidden;rotatable=0;points=[[0,0.5],[1,0.5]];portConstraint=eastwest;whiteSpace=wrap;html=1;" parent="1" vertex="1">
          <mxGeometry x="-647" y="982" width="100" height="26" as="geometry" />
        </mxCell>
        <mxCell id="g-RjNhoLe9gJ-0Raeltb-147" value="[權限:失敗]" style="text;strokeColor=none;fillColor=none;align=left;verticalAlign=top;spacingLeft=4;spacingRight=4;overflow=hidden;rotatable=0;points=[[0,0.5],[1,0.5]];portConstraint=eastwest;whiteSpace=wrap;html=1;" parent="1" vertex="1">
          <mxGeometry x="-647" y="1020" width="120" height="40" as="geometry" />
        </mxCell>
        <mxCell id="g-RjNhoLe9gJ-0Raeltb-148" value="使用者權限資料庫" style="shape=umlLifeline;perimeter=lifelinePerimeter;whiteSpace=wrap;html=1;container=1;dropTarget=0;collapsible=0;recursiveResize=0;outlineConnect=0;portConstraint=eastwest;newEdgeStyle={&quot;curved&quot;:0,&quot;rounded&quot;:0};size=40;" parent="1" vertex="1">
          <mxGeometry x="-258" y="744" width="104" height="150" as="geometry" />
        </mxCell>
        <mxCell id="g-RjNhoLe9gJ-0Raeltb-149" value="" style="html=1;points=[[0,0,0,0,5],[0,1,0,0,-5],[1,0,0,0,5],[1,1,0,0,-5]];perimeter=orthogonalPerimeter;outlineConnect=0;targetShapes=umlLifeline;portConstraint=eastwest;newEdgeStyle={&quot;curved&quot;:0,&quot;rounded&quot;:0};" parent="1" vertex="1">
          <mxGeometry x="-211" y="894" width="10" height="250" as="geometry" />
        </mxCell>
        <mxCell id="g-RjNhoLe9gJ-0Raeltb-150" value="個人資料" style="html=1;verticalAlign=bottom;endArrow=block;curved=0;rounded=0;" parent="1" edge="1">
          <mxGeometry width="80" relative="1" as="geometry">
            <mxPoint x="-325" y="920" as="sourcePoint" />
            <mxPoint x="-215" y="920" as="targetPoint" />
          </mxGeometry>
        </mxCell>
        <mxCell id="g-RjNhoLe9gJ-0Raeltb-151" value="權限" style="html=1;verticalAlign=bottom;endArrow=block;curved=0;rounded=0;dashed=1;" parent="1" edge="1">
          <mxGeometry width="80" relative="1" as="geometry">
            <mxPoint x="-215" y="944.5" as="sourcePoint" />
            <mxPoint x="-325" y="944" as="targetPoint" />
            <mxPoint as="offset" />
          </mxGeometry>
        </mxCell>
        <mxCell id="g-RjNhoLe9gJ-0Raeltb-152" value="權限不足，禁止" style="html=1;verticalAlign=bottom;endArrow=block;curved=0;rounded=0;dashed=1;" parent="1" edge="1">
          <mxGeometry width="80" relative="1" as="geometry">
            <mxPoint x="-331.0000000000002" y="1030.5799999999997" as="sourcePoint" />
            <mxPoint x="-445" y="1030.58" as="targetPoint" />
            <mxPoint as="offset" />
          </mxGeometry>
        </mxCell>
        <mxCell id="g-RjNhoLe9gJ-0Raeltb-153" value="刷新介面" style="html=1;verticalAlign=bottom;endArrow=block;curved=0;rounded=0;dashed=1;" parent="1" edge="1">
          <mxGeometry x="0.0577" width="80" relative="1" as="geometry">
            <mxPoint x="-456" y="1120" as="sourcePoint" />
            <mxPoint x="-560" y="1120" as="targetPoint" />
            <mxPoint as="offset" />
          </mxGeometry>
        </mxCell>
        <mxCell id="g-RjNhoLe9gJ-0Raeltb-155" value="" style="line;strokeWidth=1;fillColor=none;align=left;verticalAlign=middle;spacingTop=-1;spacingLeft=3;spacingRight=3;rotatable=0;labelPosition=right;points=[];portConstraint=eastwest;strokeColor=inherit;dashed=1;" parent="1" vertex="1">
          <mxGeometry x="-690" y="1012" width="580" height="8" as="geometry" />
        </mxCell>
        <mxCell id="g-RjNhoLe9gJ-0Raeltb-156" value="登入首頁" style="shape=umlLifeline;perimeter=lifelinePerimeter;whiteSpace=wrap;html=1;container=1;dropTarget=0;collapsible=0;recursiveResize=0;outlineConnect=0;portConstraint=eastwest;newEdgeStyle={&quot;curved&quot;:0,&quot;rounded&quot;:0};" parent="1" vertex="1">
          <mxGeometry x="-615" y="744" width="100" height="90" as="geometry" />
        </mxCell>
        <mxCell id="g-RjNhoLe9gJ-0Raeltb-157" value="" style="html=1;points=[[0,0,0,0,5],[0,1,0,0,-5],[1,0,0,0,5],[1,1,0,0,-5]];perimeter=orthogonalPerimeter;outlineConnect=0;targetShapes=umlLifeline;portConstraint=eastwest;newEdgeStyle={&quot;curved&quot;:0,&quot;rounded&quot;:0};" parent="1" vertex="1">
          <mxGeometry x="-650" y="834" width="10" height="296" as="geometry" />
        </mxCell>
        <mxCell id="g-RjNhoLe9gJ-0Raeltb-158" value="進入" style="html=1;verticalAlign=bottom;endArrow=block;curved=0;rounded=0;" parent="1" target="g-RjNhoLe9gJ-0Raeltb-137" edge="1">
          <mxGeometry width="80" relative="1" as="geometry">
            <mxPoint x="-640" y="844" as="sourcePoint" />
            <mxPoint x="-580" y="844" as="targetPoint" />
          </mxGeometry>
        </mxCell>
        <mxCell id="g-RjNhoLe9gJ-0Raeltb-159" value="退選課程" style="html=1;whiteSpace=wrap;" parent="1" vertex="1">
          <mxGeometry x="-790" y="720" width="110" height="50" as="geometry" />
        </mxCell>
        <mxCell id="g-RjNhoLe9gJ-0Raeltb-165" value="新增失敗" style="html=1;verticalAlign=bottom;endArrow=block;curved=0;rounded=0;dashed=1;" parent="1" edge="1">
          <mxGeometry width="80" relative="1" as="geometry">
            <mxPoint x="-341" y="1060" as="sourcePoint" />
            <mxPoint x="-445" y="1060" as="targetPoint" />
            <mxPoint as="offset" />
          </mxGeometry>
        </mxCell>
        <mxCell id="g-RjNhoLe9gJ-0Raeltb-168" value="學生" style="shape=umlActor;verticalLabelPosition=bottom;verticalAlign=top;html=1;" parent="1" vertex="1">
          <mxGeometry x="175" y="610" width="30" height="60" as="geometry" />
        </mxCell>
        <mxCell id="g-RjNhoLe9gJ-0Raeltb-169" value="" style="html=1;points=[[0,0,0,0,5],[0,1,0,0,-5],[1,0,0,0,5],[1,1,0,0,-5]];perimeter=orthogonalPerimeter;outlineConnect=0;targetShapes=umlLifeline;portConstraint=eastwest;newEdgeStyle={&quot;curved&quot;:0,&quot;rounded&quot;:0};" parent="1" vertex="1">
          <mxGeometry x="265" y="700" width="10" height="390" as="geometry" />
        </mxCell>
        <mxCell id="g-RjNhoLe9gJ-0Raeltb-170" value="課程資料" style="shape=umlLifeline;perimeter=lifelinePerimeter;whiteSpace=wrap;html=1;container=1;dropTarget=0;collapsible=0;recursiveResize=0;outlineConnect=0;portConstraint=eastwest;newEdgeStyle={&quot;curved&quot;:0,&quot;rounded&quot;:0};" parent="1" vertex="1">
          <mxGeometry x="335" y="610" width="100" height="100" as="geometry" />
        </mxCell>
        <mxCell id="g-RjNhoLe9gJ-0Raeltb-171" value="" style="html=1;points=[[0,0,0,0,5],[0,1,0,0,-5],[1,0,0,0,5],[1,1,0,0,-5]];perimeter=orthogonalPerimeter;outlineConnect=0;targetShapes=umlLifeline;portConstraint=eastwest;newEdgeStyle={&quot;curved&quot;:0,&quot;rounded&quot;:0};" parent="1" vertex="1">
          <mxGeometry x="380" y="710" width="10" height="360" as="geometry" />
        </mxCell>
        <mxCell id="g-RjNhoLe9gJ-0Raeltb-172" value="課程資料" style="shape=umlLifeline;perimeter=lifelinePerimeter;whiteSpace=wrap;html=1;container=1;dropTarget=0;collapsible=0;recursiveResize=0;outlineConnect=0;portConstraint=eastwest;newEdgeStyle={&quot;curved&quot;:0,&quot;rounded&quot;:0};" parent="1" vertex="1">
          <mxGeometry x="455" y="610" width="100" height="110" as="geometry" />
        </mxCell>
        <mxCell id="g-RjNhoLe9gJ-0Raeltb-173" value="搜尋內容" style="html=1;verticalAlign=bottom;endArrow=block;curved=0;rounded=0;" parent="1" edge="1">
          <mxGeometry width="80" relative="1" as="geometry">
            <mxPoint x="390" y="754.1" as="sourcePoint" />
            <mxPoint x="500" y="754.1" as="targetPoint" />
          </mxGeometry>
        </mxCell>
        <mxCell id="g-RjNhoLe9gJ-0Raeltb-174" value="" style="html=1;points=[[0,0,0,0,5],[0,1,0,0,-5],[1,0,0,0,5],[1,1,0,0,-5]];perimeter=orthogonalPerimeter;outlineConnect=0;targetShapes=umlLifeline;portConstraint=eastwest;newEdgeStyle={&quot;curved&quot;:0,&quot;rounded&quot;:0};" parent="1" vertex="1">
          <mxGeometry x="500" y="720" width="10" height="320" as="geometry" />
        </mxCell>
        <mxCell id="g-RjNhoLe9gJ-0Raeltb-175" value="搜尋結果" style="html=1;verticalAlign=bottom;endArrow=block;curved=0;rounded=0;dashed=1;" parent="1" edge="1">
          <mxGeometry width="80" relative="1" as="geometry">
            <mxPoint x="500" y="795.5" as="sourcePoint" />
            <mxPoint x="390" y="795.5" as="targetPoint" />
            <mxPoint as="offset" />
          </mxGeometry>
        </mxCell>
        <mxCell id="g-RjNhoLe9gJ-0Raeltb-176" value="點擊查看課程" style="html=1;verticalAlign=bottom;endArrow=block;curved=0;rounded=0;" parent="1" edge="1">
          <mxGeometry x="0.0095" width="80" relative="1" as="geometry">
            <mxPoint x="275" y="724" as="sourcePoint" />
            <mxPoint x="380" y="724" as="targetPoint" />
            <mxPoint as="offset" />
          </mxGeometry>
        </mxCell>
        <mxCell id="g-RjNhoLe9gJ-0Raeltb-179" value="目標課程檢查" style="html=1;verticalAlign=bottom;endArrow=block;curved=0;rounded=0;" parent="1" edge="1">
          <mxGeometry x="0.0095" width="80" relative="1" as="geometry">
            <mxPoint x="391" y="895" as="sourcePoint" />
            <mxPoint x="500" y="895" as="targetPoint" />
            <mxPoint as="offset" />
          </mxGeometry>
        </mxCell>
        <mxCell id="g-RjNhoLe9gJ-0Raeltb-180" value="結果回傳" style="html=1;verticalAlign=bottom;endArrow=block;curved=0;rounded=0;dashed=1;" parent="1" edge="1">
          <mxGeometry width="80" relative="1" as="geometry">
            <mxPoint x="500" y="954.5" as="sourcePoint" />
            <mxPoint x="390" y="954" as="targetPoint" />
            <mxPoint as="offset" />
          </mxGeometry>
        </mxCell>
        <mxCell id="g-RjNhoLe9gJ-0Raeltb-182" value="ALT" style="shape=umlFrame;whiteSpace=wrap;html=1;pointerEvents=0;" parent="1" vertex="1">
          <mxGeometry x="145" y="940" width="580" height="100" as="geometry" />
        </mxCell>
        <mxCell id="g-RjNhoLe9gJ-0Raeltb-183" value="[權限:成功]" style="text;strokeColor=none;fillColor=none;align=left;verticalAlign=top;spacingLeft=4;spacingRight=4;overflow=hidden;rotatable=0;points=[[0,0.5],[1,0.5]];portConstraint=eastwest;whiteSpace=wrap;html=1;" parent="1" vertex="1">
          <mxGeometry x="188" y="960" width="100" height="26" as="geometry" />
        </mxCell>
        <mxCell id="g-RjNhoLe9gJ-0Raeltb-184" value="[權限:失敗]" style="text;strokeColor=none;fillColor=none;align=left;verticalAlign=top;spacingLeft=4;spacingRight=4;overflow=hidden;rotatable=0;points=[[0,0.5],[1,0.5]];portConstraint=eastwest;whiteSpace=wrap;html=1;" parent="1" vertex="1">
          <mxGeometry x="188" y="998" width="120" height="40" as="geometry" />
        </mxCell>
        <mxCell id="g-RjNhoLe9gJ-0Raeltb-185" value="使用者權限資料庫" style="shape=umlLifeline;perimeter=lifelinePerimeter;whiteSpace=wrap;html=1;container=1;dropTarget=0;collapsible=0;recursiveResize=0;outlineConnect=0;portConstraint=eastwest;newEdgeStyle={&quot;curved&quot;:0,&quot;rounded&quot;:0};size=40;" parent="1" vertex="1">
          <mxGeometry x="577" y="610" width="104" height="150" as="geometry" />
        </mxCell>
        <mxCell id="g-RjNhoLe9gJ-0Raeltb-186" value="" style="shape=umlLifeline;perimeter=lifelinePerimeter;whiteSpace=wrap;html=1;container=1;dropTarget=0;collapsible=0;recursiveResize=0;outlineConnect=0;portConstraint=eastwest;newEdgeStyle={&quot;curved&quot;:0,&quot;rounded&quot;:0};participant=umlControl;size=0;" parent="1" vertex="1">
          <mxGeometry x="485" y="1040" width="40" height="80" as="geometry" />
        </mxCell>
        <mxCell id="g-RjNhoLe9gJ-0Raeltb-187" value="" style="shape=umlLifeline;perimeter=lifelinePerimeter;whiteSpace=wrap;html=1;container=1;dropTarget=0;collapsible=0;recursiveResize=0;outlineConnect=0;portConstraint=eastwest;newEdgeStyle={&quot;curved&quot;:0,&quot;rounded&quot;:0};participant=umlControl;size=0;" parent="1" vertex="1">
          <mxGeometry x="365" y="1070" width="40" height="50" as="geometry" />
        </mxCell>
        <mxCell id="g-RjNhoLe9gJ-0Raeltb-188" value="" style="shape=umlLifeline;perimeter=lifelinePerimeter;whiteSpace=wrap;html=1;container=1;dropTarget=0;collapsible=0;recursiveResize=0;outlineConnect=0;portConstraint=eastwest;newEdgeStyle={&quot;curved&quot;:0,&quot;rounded&quot;:0};participant=umlControl;size=0;" parent="1" vertex="1">
          <mxGeometry x="248" y="1090" width="40" height="30" as="geometry" />
        </mxCell>
        <mxCell id="g-RjNhoLe9gJ-0Raeltb-189" value="" style="html=1;points=[[0,0,0,0,5],[0,1,0,0,-5],[1,0,0,0,5],[1,1,0,0,-5]];perimeter=orthogonalPerimeter;outlineConnect=0;targetShapes=umlLifeline;portConstraint=eastwest;newEdgeStyle={&quot;curved&quot;:0,&quot;rounded&quot;:0};" parent="1" vertex="1">
          <mxGeometry x="624" y="760" width="10" height="250" as="geometry" />
        </mxCell>
        <mxCell id="g-RjNhoLe9gJ-0Raeltb-190" value="個人資料" style="html=1;verticalAlign=bottom;endArrow=block;curved=0;rounded=0;" parent="1" edge="1">
          <mxGeometry width="80" relative="1" as="geometry">
            <mxPoint x="510" y="915" as="sourcePoint" />
            <mxPoint x="620" y="915" as="targetPoint" />
          </mxGeometry>
        </mxCell>
        <mxCell id="g-RjNhoLe9gJ-0Raeltb-191" value="權限" style="html=1;verticalAlign=bottom;endArrow=block;curved=0;rounded=0;dashed=1;" parent="1" edge="1">
          <mxGeometry width="80" relative="1" as="geometry">
            <mxPoint x="620" y="934.5" as="sourcePoint" />
            <mxPoint x="510" y="934" as="targetPoint" />
            <mxPoint as="offset" />
          </mxGeometry>
        </mxCell>
        <mxCell id="g-RjNhoLe9gJ-0Raeltb-192" value="權限不足，禁止" style="html=1;verticalAlign=bottom;endArrow=block;curved=0;rounded=0;dashed=1;" parent="1" edge="1">
          <mxGeometry width="80" relative="1" as="geometry">
            <mxPoint x="494" y="1024" as="sourcePoint" />
            <mxPoint x="390" y="1024" as="targetPoint" />
            <mxPoint as="offset" />
          </mxGeometry>
        </mxCell>
        <mxCell id="g-RjNhoLe9gJ-0Raeltb-195" value="" style="line;strokeWidth=1;fillColor=none;align=left;verticalAlign=middle;spacingTop=-1;spacingLeft=3;spacingRight=3;rotatable=0;labelPosition=right;points=[];portConstraint=eastwest;strokeColor=inherit;dashed=1;" parent="1" vertex="1">
          <mxGeometry x="145" y="990" width="580" height="8" as="geometry" />
        </mxCell>
        <mxCell id="g-RjNhoLe9gJ-0Raeltb-196" value="登入首頁" style="shape=umlLifeline;perimeter=lifelinePerimeter;whiteSpace=wrap;html=1;container=1;dropTarget=0;collapsible=0;recursiveResize=0;outlineConnect=0;portConstraint=eastwest;newEdgeStyle={&quot;curved&quot;:0,&quot;rounded&quot;:0};" parent="1" vertex="1">
          <mxGeometry x="220" y="610" width="100" height="90" as="geometry" />
        </mxCell>
        <mxCell id="g-RjNhoLe9gJ-0Raeltb-197" value="" style="html=1;points=[[0,0,0,0,5],[0,1,0,0,-5],[1,0,0,0,5],[1,1,0,0,-5]];perimeter=orthogonalPerimeter;outlineConnect=0;targetShapes=umlLifeline;portConstraint=eastwest;newEdgeStyle={&quot;curved&quot;:0,&quot;rounded&quot;:0};" parent="1" vertex="1">
          <mxGeometry x="185" y="700" width="10" height="350" as="geometry" />
        </mxCell>
        <mxCell id="g-RjNhoLe9gJ-0Raeltb-198" value="進入" style="html=1;verticalAlign=bottom;endArrow=block;curved=0;rounded=0;" parent="1" target="g-RjNhoLe9gJ-0Raeltb-169" edge="1">
          <mxGeometry width="80" relative="1" as="geometry">
            <mxPoint x="195" y="710" as="sourcePoint" />
            <mxPoint x="255" y="710" as="targetPoint" />
          </mxGeometry>
        </mxCell>
        <mxCell id="g-RjNhoLe9gJ-0Raeltb-199" value="" style="shape=umlLifeline;perimeter=lifelinePerimeter;whiteSpace=wrap;html=1;container=1;dropTarget=0;collapsible=0;recursiveResize=0;outlineConnect=0;portConstraint=eastwest;newEdgeStyle={&quot;curved&quot;:0,&quot;rounded&quot;:0};participant=umlControl;size=0;" parent="1" vertex="1">
          <mxGeometry x="170" y="1050" width="40" height="70" as="geometry" />
        </mxCell>
        <mxCell id="g-RjNhoLe9gJ-0Raeltb-200" value="" style="shape=umlLifeline;perimeter=lifelinePerimeter;whiteSpace=wrap;html=1;container=1;dropTarget=0;collapsible=0;recursiveResize=0;outlineConnect=0;portConstraint=eastwest;newEdgeStyle={&quot;curved&quot;:0,&quot;rounded&quot;:0};participant=umlControl;size=0;" parent="1" vertex="1">
          <mxGeometry x="609" y="1010" width="40" height="110" as="geometry" />
        </mxCell>
        <mxCell id="g-RjNhoLe9gJ-0Raeltb-201" value="列出所有課程資料" style="html=1;whiteSpace=wrap;" parent="1" vertex="1">
          <mxGeometry x="45" y="600" width="110" height="50" as="geometry" />
        </mxCell>
      </root>
    </mxGraphModel>
  </diagram>
</mxfile>
